<svg width="120" height="120" viewBox="0 0 120 120" fill="none" xmlns="http://www.w3.org/2000/svg">
<g clip-path="url(#clip0_15_201)">
<path d="M115.088 41.8977C116.117 24.6197 100.497 18.8992 89.1901 22.181C72.6647 26.9757 32.2537 16.4656 12.9301 51.7431C4.0597 67.9427 7.12685 84.5198 8.60354 90.486C2.2882 94.9367 -1.65049 104.035 0.674447 116.702C7.58977 107.43 16.318 110.394 17.7274 102.064C23.3111 108.406 29.1729 101.295 39.932 105.545C35.5821 94.4066 28.2168 88.7171 20.9885 87.6025C20.042 73.0451 33.3089 77.2864 53.3618 73.3115C52.7463 72.4529 52.0687 71.6305 51.3291 70.8495C50.592 70.071 50.5998 68.8452 51.3213 68.0513C52.1225 67.1694 53.5156 67.1363 54.3341 68.0021C57.7551 71.6183 60.2248 76.1332 61.265 81.2923C61.9092 84.4996 66.099 85.3761 68.0458 82.7483C73.6523 75.175 76.4596 65.8704 75.781 56.2042C75.7034 55.1077 76.5077 54.1482 77.5964 54.0189L77.6042 54.0163C78.7783 53.8793 79.8283 54.7534 79.9084 55.9327C80.211 60.2722 79.8748 64.5833 78.9309 68.7469C104.086 63.4221 114.676 58.3688 118.346 53.4784C112.176 53.9437 105.909 53.0607 99.8294 50.7811C98.7614 50.3802 98.2183 49.188 98.6191 48.1174C99.0226 47.0467 100.212 46.5062 101.283 46.907C111.49 50.7376 118.898 49.0517 119.981 49.2682C120.166 46.4118 119.062 43.9532 115.088 41.8977ZM98.4872 43.002C97.3442 43.002 96.4183 42.0761 96.4183 40.9331C96.4183 39.79 97.3442 38.8642 98.4872 38.8642C99.6303 38.8642 100.556 39.79 100.556 40.9331C100.556 42.0761 99.6303 43.002 98.4872 43.002Z" fill="white"/>
<g clip-path="url(#clip1_15_201)">
<path d="M100.896 9.30175L84.4864 4.86095L69.0653 12.5932L85.6525 16.1384L100.896 9.30175Z" fill="white"/>
<path d="M95.2211 17.0376L94.7587 12.5662L85.5773 16.7192L75.8409 14.5224L76.2998 18.9601C81.3584 19.9079 86.0727 21.0179 86.0727 21.0179C90.9226 17.2118 95.2211 17.0376 95.2211 17.0376Z" fill="white"/>
<path d="M99.3076 15.0713L99.6739 18.614L98.4046 18.7453L98.0383 15.2026C98.0216 15.0414 98.1163 14.8907 98.27 14.7968C98.0975 14.7221 97.9742 14.5825 97.9565 14.4113C97.9357 14.2108 98.0655 14.0237 98.2691 13.92L98.2669 13.9143L97.8803 10.1755L98.4488 10.2586L98.819 13.8386L98.8049 13.8583C99.0333 13.9153 99.205 14.0748 99.2262 14.2801C99.2439 14.4512 99.152 14.613 98.9984 14.7215C99.1674 14.782 99.291 14.9105 99.3076 15.0713Z" fill="white"/>
</g>
</g>
<defs>
<clipPath id="clip0_15_201">
<rect width="120" height="120" fill="white"/>
</clipPath>
<clipPath id="clip1_15_201">
<rect width="32" height="32" fill="white" transform="translate(68 2.29147) rotate(-5.90379)"/>
</clipPath>
</defs>
</svg>
