<svg width="120" height="96" viewBox="0 0 120 96" fill="none" xmlns="http://www.w3.org/2000/svg">
<path d="M115.088 20.8977C116.117 3.61974 100.497 -2.1008 89.1901 1.18101C72.6647 5.9757 32.2538 -4.53435 12.9302 30.7431C4.05976 46.9427 7.12691 63.5198 8.6036 69.486C2.28826 73.9367 -1.65043 83.0348 0.674508 95.7017C7.58983 86.4304 16.318 89.3941 17.7275 81.0641C23.3112 87.4061 29.1729 80.295 39.932 84.5451C35.5821 73.4066 28.2168 67.7171 20.9886 66.6025C20.0421 52.0451 33.3089 56.2864 53.3618 52.3115C52.7463 51.4529 52.0688 50.6305 51.3291 49.8495C50.5921 49.0711 50.5998 47.8452 51.3214 47.0513C52.1225 46.1694 53.5157 46.1363 54.3342 47.0021C57.7551 50.6183 60.2249 55.1332 61.265 60.2923C61.9093 63.4996 66.0991 64.3761 68.0459 61.7483C73.6524 54.175 76.4596 44.8704 75.781 35.2042C75.7034 34.1077 76.5077 33.1482 77.5965 33.0189L77.6042 33.0163C78.7784 32.8793 79.8283 33.7534 79.9085 34.9327C80.2111 39.2722 79.8749 43.5833 78.9309 47.747C104.086 42.4221 114.676 37.3688 118.346 32.4784C112.176 32.9437 105.909 32.0607 99.8295 29.7811C98.7614 29.3802 98.2183 28.188 98.6192 27.1174C99.0226 26.0467 100.212 25.5062 101.283 25.907C111.49 29.7376 118.898 28.0517 119.981 28.2682C120.166 25.4118 119.062 22.9532 115.088 20.8977ZM98.4873 22.002C97.3442 22.002 96.4184 21.0761 96.4184 19.9331C96.4184 18.79 97.3442 17.8642 98.4873 17.8642C99.6304 17.8642 100.556 18.79 100.556 19.9331C100.556 21.0761 99.6304 22.002 98.4873 22.002Z" fill="white"/>
</svg>
