<svg width="70" height="70" viewBox="0 0 70 70" fill="none" xmlns="http://www.w3.org/2000/svg">
<path d="M55.4168 37.9167C54.6433 37.9167 53.9014 38.224 53.3544 38.7709C52.8074 39.3179 52.5002 40.0598 52.5002 40.8333V41.9417L48.1835 37.625C46.6593 36.1128 44.5993 35.2643 42.4522 35.2643C40.3052 35.2643 38.2452 36.1128 36.721 37.625L34.6793 39.6667L27.446 32.4333C25.9005 30.9622 23.8485 30.1417 21.7147 30.1417C19.581 30.1417 17.529 30.9622 15.9835 32.4333L11.6668 36.75V20.4167C11.6668 19.6431 11.9741 18.9013 12.5211 18.3543C13.0681 17.8073 13.8099 17.5 14.5835 17.5H35.0002C35.7737 17.5 36.5156 17.1927 37.0626 16.6457C37.6095 16.0987 37.9168 15.3569 37.9168 14.5833C37.9168 13.8098 37.6095 13.0679 37.0626 12.5209C36.5156 11.974 35.7737 11.6667 35.0002 11.6667H14.5835C12.2629 11.6667 10.0373 12.5885 8.39631 14.2295C6.75537 15.8704 5.8335 18.096 5.8335 20.4167V55.4167C5.8335 57.7373 6.75537 59.9629 8.39631 61.6039C10.0373 63.2448 12.2629 64.1667 14.5835 64.1667H49.5835C51.9041 64.1667 54.1297 63.2448 55.7707 61.6039C57.4116 59.9629 58.3335 57.7373 58.3335 55.4167V40.8333C58.3335 40.0598 58.0262 39.3179 57.4792 38.7709C56.9322 38.224 56.1904 37.9167 55.4168 37.9167ZM14.5835 58.3333C13.8099 58.3333 13.0681 58.026 12.5211 57.4791C11.9741 56.9321 11.6668 56.1902 11.6668 55.4167V45.0042L20.1252 36.5458C20.5537 36.1375 21.1228 35.9097 21.7147 35.9097C22.3066 35.9097 22.8758 36.1375 23.3043 36.5458L32.5502 45.7917L45.0918 58.3333H14.5835ZM52.5002 55.4167C52.496 55.975 52.3119 56.5171 51.9752 56.9625L38.821 43.75L40.8627 41.7083C41.0718 41.4949 41.3214 41.3254 41.5968 41.2096C41.8723 41.0939 42.168 41.0343 42.4668 41.0343C42.7656 41.0343 43.0614 41.0939 43.3368 41.2096C43.6123 41.3254 43.8619 41.4949 44.071 41.7083L52.5002 50.1958V55.4167ZM66.2377 12.5125L57.4877 3.7625C57.2103 3.49696 56.8832 3.28882 56.5252 3.15C55.8151 2.85828 55.0186 2.85828 54.3085 3.15C53.9505 3.28882 53.6234 3.49696 53.346 3.7625L44.596 12.5125C44.0468 13.0617 43.7382 13.8066 43.7382 14.5833C43.7382 15.36 44.0468 16.1049 44.596 16.6542C45.1452 17.2034 45.8901 17.5119 46.6668 17.5119C47.4435 17.5119 48.1884 17.2034 48.7377 16.6542L52.5002 12.8625V29.1667C52.5002 29.9402 52.8074 30.6821 53.3544 31.2291C53.9014 31.776 54.6433 32.0833 55.4168 32.0833C56.1904 32.0833 56.9322 31.776 57.4792 31.2291C58.0262 30.6821 58.3335 29.9402 58.3335 29.1667V12.8625L62.096 16.6542C62.3671 16.9275 62.6897 17.1445 63.0451 17.2926C63.4006 17.4407 63.7818 17.5169 64.1668 17.5169C64.5519 17.5169 64.9331 17.4407 65.2885 17.2926C65.6439 17.1445 65.9665 16.9275 66.2377 16.6542C66.511 16.383 66.728 16.0604 66.8761 15.705C67.0242 15.3496 67.1004 14.9684 67.1004 14.5833C67.1004 14.1983 67.0242 13.8171 66.8761 13.4616C66.728 13.1062 66.511 12.7836 66.2377 12.5125Z" fill="#643FDB" fill-opacity="0.5"/>
</svg>
