<svg width="28" height="28" viewBox="0 0 28 28" fill="none" xmlns="http://www.w3.org/2000/svg">
<rect width="28" height="28" fill="#643FDB"/>
<path fill-rule="evenodd" clip-rule="evenodd" d="M14.0001 3.49997C14.6445 3.49997 15.1668 4.0223 15.1668 4.66664V12.8333H23.3335C23.9778 12.8333 24.5001 13.3556 24.5001 14C24.5001 14.6443 23.9778 15.1666 23.3335 15.1666H15.1668V23.3333C15.1668 23.9776 14.6445 24.5 14.0001 24.5C13.3558 24.5 12.8335 23.9776 12.8335 23.3333V15.1666H4.66679C4.02246 15.1666 3.50012 14.6443 3.50012 14C3.50012 13.3556 4.02246 12.8333 4.66679 12.8333H12.8335V4.66664C12.8335 4.0223 13.3558 3.49997 14.0001 3.49997Z" fill="#F8F7FF"/>
</svg>
