<svg width="22" height="22" viewBox="0 0 22 22" fill="none" xmlns="http://www.w3.org/2000/svg">
<path fill-rule="evenodd" clip-rule="evenodd" d="M11 0.5C11.6443 0.5 12.1667 1.02233 12.1667 1.66667V9.83333H20.3333C20.9777 9.83333 21.5 10.3557 21.5 11C21.5 11.6443 20.9777 12.1667 20.3333 12.1667H12.1667V20.3333C12.1667 20.9777 11.6443 21.5 11 21.5C10.3557 21.5 9.83333 20.9777 9.83333 20.3333V12.1667H1.66667C1.02233 12.1667 0.5 11.6443 0.5 11C0.5 10.3557 1.02233 9.83333 1.66667 9.83333H9.83333V1.66667C9.83333 1.02233 10.3557 0.5 11 0.5Z" fill="#F8F7FF"/>
</svg>
