<svg width="20" height="20" viewBox="0 0 20 20" fill="none" xmlns="http://www.w3.org/2000/svg">
<path fill-rule="evenodd" clip-rule="evenodd" d="M6.66667 0.833344C7.12691 0.833344 7.5 1.20644 7.5 1.66668V2.50001H12.5V1.66668C12.5 1.20644 12.8731 0.833344 13.3333 0.833344C13.7936 0.833344 14.1667 1.20644 14.1667 1.66668V2.50003C14.5492 2.50026 14.8827 2.50262 15.1624 2.52549C15.4918 2.55242 15.8193 2.61188 16.1345 2.77249C16.604 3.01172 16.9876 3.39354 17.2277 3.86485C17.3883 4.18001 17.4477 4.50756 17.4745 4.83665C17.5 5.14847 17.5 5.52693 17.5 5.96534V14.0351C17.5 14.4735 17.5 14.8518 17.4745 15.1635C17.4476 15.4925 17.3882 15.8198 17.2277 16.1349C16.9878 16.6057 16.6045 16.9882 16.1345 17.2277C15.8194 17.3882 15.4921 17.4476 15.1631 17.4746C14.8514 17.5 14.4731 17.5 14.0347 17.5H5.96533C5.52692 17.5 5.14846 17.5 4.83664 17.4746C4.50755 17.4477 4.18 17.3883 3.86484 17.2277C3.39396 16.9878 3.01193 16.6048 2.77249 16.1349C2.61184 15.8196 2.5524 15.492 2.52548 15.1626C2.49997 14.8505 2.49999 14.4716 2.5 14.0323V5.96807C2.49999 5.52876 2.49997 5.14972 2.52547 4.8375C2.55238 4.50802 2.6118 4.18021 2.77249 3.86485C3.01217 3.39444 3.39444 3.01218 3.86484 2.77249C4.18021 2.61181 4.50801 2.55239 4.83749 2.52548C5.11733 2.50263 5.45085 2.50027 5.83334 2.50003V1.66668C5.83334 1.20644 6.20643 0.833344 6.66667 0.833344ZM4.97317 4.18662C4.74663 4.20512 4.66265 4.23654 4.62149 4.2575C4.46469 4.3374 4.33739 4.4647 4.2575 4.6215C4.23653 4.66265 4.20511 4.74663 4.18661 4.97317C4.16965 5.18086 4.1671 5.44583 4.16673 5.83334H15.8333C15.8329 5.44525 15.8304 5.18013 15.8134 4.97239C15.7949 4.74629 15.7636 4.66251 15.7427 4.6215C15.6632 4.4656 15.5355 4.33786 15.3778 4.2575C15.3365 4.23646 15.2527 4.2051 15.0266 4.18661C14.7907 4.16733 14.4806 4.16668 14.0002 4.16668H6.00016C5.51971 4.16668 5.20938 4.16732 4.97317 4.18662ZM15.8333 7.50001H4.16667V14.0002C4.16667 14.4806 4.16732 14.7908 4.18661 15.0268C4.2051 15.2531 4.23648 15.337 4.2575 15.3783C4.33763 15.5355 4.46516 15.663 4.62149 15.7427C4.6625 15.7636 4.74629 15.7949 4.97238 15.8134C5.20817 15.8327 5.51789 15.8333 5.99743 15.8333H14.0026C14.4821 15.8333 14.7917 15.8327 15.0272 15.8134C15.253 15.795 15.3367 15.7636 15.3778 15.7427C15.5351 15.6626 15.663 15.5346 15.7427 15.3783C15.7636 15.3371 15.795 15.2535 15.8134 15.0277C15.8327 14.7921 15.8333 14.4825 15.8333 14.003V7.50001ZM5.83334 10.2083C5.83334 9.63305 6.29971 9.16668 6.875 9.16668H9.79167C10.367 9.16668 10.8333 9.63305 10.8333 10.2083V13.125C10.8333 13.7003 10.367 14.1667 9.79167 14.1667H6.875C6.29971 14.1667 5.83334 13.7003 5.83334 13.125V10.2083ZM7.5 10.8333V12.5H9.16667V10.8333H7.5Z" fill="#643FDB" fill-opacity="0.6"/>
</svg>
