<svg width="24" height="24" viewBox="0 0 24 24" fill="none" xmlns="http://www.w3.org/2000/svg">
<g clip-path="url(#clip0_5_958)">
<path d="M22 20.15H22.15V20V4V3.85H22H2H1.85V4V20V20.15H2H15H15.15V20V19.15H19.85V20V20.15H20H22ZM19.85 15.14V15.85H4.15V15.14C4.15 14.7556 4.4726 14.367 5.02804 14.0642C5.57374 13.7668 6.29889 13.58 7 13.58C7.53092 13.58 8.07256 13.6864 8.54577 13.8699L8.63284 13.9036L8.70156 13.8404C9.41769 13.1815 10.7283 12.72 12 12.72C13.2717 12.72 14.5823 13.1815 15.2984 13.8404L15.3672 13.9036L15.4542 13.8699C15.9274 13.6864 16.4691 13.58 17 13.58C17.7011 13.58 18.4263 13.7668 18.972 14.0642C19.5274 14.367 19.85 14.7556 19.85 15.14ZM1 2.15H23C23.2254 2.15 23.4416 2.23955 23.601 2.39896C23.7604 2.55836 23.85 2.77457 23.85 3V21C23.85 21.2254 23.7604 21.4416 23.601 21.601C23.4416 21.7604 23.2254 21.85 23 21.85H1C0.774566 21.85 0.558365 21.7604 0.398959 21.601C0.239553 21.4416 0.15 21.2254 0.15 21V3C0.15 2.77457 0.239553 2.55837 0.398959 2.39896C0.558365 2.23955 0.774566 2.15 1 2.15ZM10.44 9.71C10.44 9.29626 10.6044 8.89947 10.8969 8.60691C11.1895 8.31436 11.5863 8.15 12 8.15C12.8666 8.15 13.56 8.85227 13.56 9.71C13.56 10.5783 12.866 11.28 12 11.28C11.134 11.28 10.44 10.5783 10.44 9.71ZM5.86 11.29C5.86 10.6628 6.37284 10.15 7 10.15C7.30235 10.15 7.59231 10.2701 7.8061 10.4839C8.01989 10.6977 8.14 10.9877 8.14 11.29C8.14 11.9156 7.62868 12.42 7 12.42C6.37132 12.42 5.86 11.9156 5.86 11.29ZM15.86 11.29C15.86 10.9877 15.9801 10.6977 16.1939 10.4839C16.4077 10.2701 16.6977 10.15 17 10.15C17.3023 10.15 17.5923 10.2701 17.8061 10.4839C18.0199 10.6977 18.14 10.9877 18.14 11.29C18.14 11.9156 17.6287 12.42 17 12.42C16.3713 12.42 15.86 11.9156 15.86 11.29Z" fill="#643FDB" stroke="white" stroke-width="0.3"/>
</g>
<defs>
<clipPath id="clip0_5_958">
<rect width="24" height="24" fill="white"/>
</clipPath>
</defs>
</svg>
