<svg width="20" height="20" viewBox="0 0 20 20" fill="none" xmlns="http://www.w3.org/2000/svg">
<g opacity="0.6">
<path fill-rule="evenodd" clip-rule="evenodd" d="M9.99984 3.33332C6.31794 3.33332 3.33317 6.31809 3.33317 9.99999C3.33317 13.6819 6.31794 16.6667 9.99984 16.6667C13.6817 16.6667 16.6665 13.6819 16.6665 9.99999C16.6665 6.31809 13.6817 3.33332 9.99984 3.33332ZM1.6665 9.99999C1.6665 5.39762 5.39746 1.66666 9.99984 1.66666C14.6022 1.66666 18.3332 5.39762 18.3332 9.99999C18.3332 14.6024 14.6022 18.3333 9.99984 18.3333C5.39746 18.3333 1.6665 14.6024 1.6665 9.99999ZM9.99984 4.99999C10.4601 4.99999 10.8332 5.37309 10.8332 5.83332V9.16666H14.1665C14.6267 9.16666 14.9998 9.53975 14.9998 9.99999C14.9998 10.4602 14.6267 10.8333 14.1665 10.8333H9.99984C9.5396 10.8333 9.1665 10.4602 9.1665 9.99999V5.83332C9.1665 5.37309 9.5396 4.99999 9.99984 4.99999Z" fill="#643FDB"/>
</g>
</svg>
