<svg width="24" height="24" viewBox="0 0 24 24" fill="none" xmlns="http://www.w3.org/2000/svg">
<path d="M21.9743 17.0295V10.8007L22.152 10.6972C22.5293 10.4782 22.7543 10.0875 22.7543 9.65175C22.7543 9.216 22.5293 8.8245 22.152 8.6055L13.0343 3.309C12.267 2.862 11.3123 2.86275 10.545 3.309L1.42651 8.60625C1.05001 8.82525 0.825012 9.216 0.825012 9.65175C0.825012 10.0875 1.05001 10.4782 1.42651 10.698L4.19101 12.3045V16.0387C4.19101 16.9057 4.65751 17.712 5.40751 18.1447L9.21301 20.3385C10.0073 20.796 10.8983 21.0255 11.7893 21.0255C12.6803 21.0255 13.5705 20.7967 14.3655 20.3385L18.1703 18.1447C18.921 17.7127 19.3875 16.9057 19.3875 16.0387V12.3037L20.6243 11.5852V17.0295C20.307 17.2455 20.0985 17.6092 20.0985 18.0225C20.0985 18.6855 20.6363 19.2232 21.2993 19.2232C21.9623 19.2232 22.5 18.6855 22.5 18.0225C22.5 17.61 22.2915 17.2462 21.9743 17.0295ZM18.0383 16.038H18.0375C18.0375 16.4235 17.8313 16.782 17.4968 16.974L13.692 19.1677C12.519 19.8435 11.0603 19.8435 9.88801 19.1677L6.08251 16.974C5.74876 16.782 5.54176 16.4235 5.54176 16.038V13.0882L10.545 15.9952C10.929 16.218 11.3595 16.3297 11.79 16.3297C12.2205 16.3297 12.651 16.2187 13.035 15.9952L18.0383 13.0882V16.038ZM12.3563 14.8282C12.0068 15.0315 11.5725 15.0315 11.223 14.8282L2.31376 9.65175L11.2223 4.47525C11.5718 4.272 12.006 4.272 12.3555 4.47525L21.2648 9.651L12.3563 14.8282Z" fill="#643FDB"/>
</svg>
