<svg width="24" height="24" viewBox="0 0 24 24" fill="none" xmlns="http://www.w3.org/2000/svg">
<g clip-path="url(#clip0_5_948)">
<path d="M12.9934 3.32241L12.9935 3.32245L23.0375 7.57245C23.318 7.69111 23.5573 7.88979 23.7256 8.14368C23.8939 8.39757 23.9836 8.69541 23.9836 9C23.9836 9.30459 23.8939 9.60243 23.7256 9.85632C23.5573 10.1102 23.318 10.3089 23.0375 10.4276L23.018 10.3815L23.0375 10.4276L22.05 10.8451V13.5736C22.2462 13.6646 22.4167 13.8034 22.5457 13.9775C22.6812 14.1605 22.766 14.3759 22.7916 14.6022C22.8172 14.8284 22.7826 15.0574 22.6914 15.266C22.609 15.4545 22.483 15.6203 22.3241 15.75C22.4636 15.864 22.578 16.006 22.6597 16.167C22.7514 16.3477 22.7994 16.5473 22.8 16.7499V16.75V18C22.8 18.1459 22.742 18.2858 22.6389 18.3889C22.5357 18.4921 22.3959 18.55 22.25 18.55H20.75C20.6041 18.55 20.4642 18.4921 20.3611 18.3889C20.2579 18.2858 20.2 18.1459 20.2 18V16.75V16.7499C20.2005 16.5473 20.2486 16.3477 20.3402 16.167C20.422 16.006 20.5364 15.864 20.6759 15.75C20.517 15.6203 20.391 15.4545 20.3086 15.266C20.2174 15.0574 20.1828 14.8284 20.2084 14.6022C20.234 14.3759 20.3188 14.1605 20.4543 13.9775C20.5833 13.8034 20.7537 13.6646 20.95 13.5736V11.3105L19.55 11.9031V16.6562V16.6565H19.5C19.5027 17.0863 19.3935 17.5094 19.1831 17.8842C18.9727 18.259 18.6683 18.5725 18.3 18.794L12.9934 3.32241ZM12.9934 3.32241C12.6786 3.18999 12.3405 3.12178 11.999 3.12178C11.6575 3.12178 11.3194 3.18999 11.0046 3.32241L11.0045 3.32245L0.960509 7.57245M12.9934 3.32241L4.44999 11.9031M4.44999 11.9031L0.960513 10.4276L0.960509 10.4276C0.679979 10.3089 0.440628 10.1102 0.272351 9.85632C0.104074 9.60243 0.0143311 9.30459 0.0143311 9C0.0143311 8.69541 0.104074 8.39757 0.272351 8.14368C0.440628 7.88979 0.67998 7.69111 0.960509 7.57245M4.44999 11.9031V16.6563V16.6565H4.49999C4.49728 17.0863 4.6065 17.5094 4.81691 17.8842C5.02731 18.259 5.33165 18.5725 5.69999 18.794L4.44999 11.9031ZM0.960509 7.57245L0.979987 7.6185L0.960503 7.57245L0.960509 7.57245ZM18.45 16.6565L18.45 16.6571C18.4528 16.9041 18.3912 17.1476 18.2714 17.3637C18.1516 17.5796 17.9778 17.7607 17.7669 17.8891C16.0169 18.9113 14.0266 19.45 12 19.45C9.97333 19.45 7.98309 18.9113 6.23312 17.8891C6.02222 17.7607 5.84834 17.5796 5.72857 17.3637C5.60873 17.1476 5.54718 16.9041 5.54999 16.6571V16.6565V12.3684L11.0065 14.677L11.0066 14.6771C11.3213 14.8096 11.6594 14.8779 12.001 14.8779C12.3425 14.8779 12.6806 14.8096 12.9954 14.6771L12.9955 14.677L18.45 12.3685L18.45 16.6565ZM1.39097 9.41445L1.39097 9.41445C1.30952 9.38 1.24003 9.32232 1.19118 9.24861C1.14232 9.1749 1.11627 9.08843 1.11627 9C1.11627 8.91157 1.14232 8.8251 1.19118 8.75139C1.24003 8.67768 1.30952 8.62 1.39097 8.58555L1.39097 8.58555L11.4349 4.33558C11.6138 4.26028 11.8059 4.22149 12 4.22149C12.1941 4.22149 12.3862 4.26028 12.5651 4.33558L22.609 8.58555L22.6285 8.5395L22.609 8.58555C22.6905 8.62 22.7599 8.67768 22.8088 8.75139C22.8577 8.8251 22.8837 8.91157 22.8837 9C22.8837 9.08843 22.8577 9.1749 22.8088 9.24861C22.7599 9.32232 22.6905 9.38 22.609 9.41445L22.6285 9.4605L22.609 9.41445L12.5651 13.6644C12.3862 13.7395 12.1941 13.7783 12 13.7783C11.8059 13.7783 11.6138 13.7395 11.4348 13.6644L1.39097 9.41445ZM21.7 14.75C21.7 14.7896 21.6883 14.8282 21.6663 14.8611C21.6443 14.894 21.6131 14.9196 21.5765 14.9348C21.54 14.9499 21.4998 14.9539 21.461 14.9462C21.4222 14.9384 21.3865 14.9194 21.3586 14.8914C21.3306 14.8635 21.3115 14.8278 21.3038 14.789C21.2961 14.7502 21.3001 14.71 21.3152 14.6735C21.3303 14.6369 21.356 14.6057 21.3889 14.5837C21.4218 14.5617 21.4604 14.55 21.5 14.55C21.553 14.55 21.6039 14.5711 21.6414 14.6086C21.6789 14.6461 21.7 14.697 21.7 14.75ZM21.3 17.45V16.75C21.3 16.697 21.3211 16.6461 21.3586 16.6086C21.3961 16.5711 21.4469 16.55 21.5 16.55C21.553 16.55 21.6039 16.5711 21.6414 16.6086C21.6789 16.6461 21.7 16.697 21.7 16.75V17.45H21.3Z" fill="#643FDB" stroke="#643FDB" stroke-width="0.1"/>
</g>
<defs>
<clipPath id="clip0_5_948">
<rect width="24" height="24" fill="white"/>
</clipPath>
</defs>
</svg>
