<svg width="100" height="100" viewBox="0 0 100 100" fill="none" xmlns="http://www.w3.org/2000/svg">
<path d="M47.9166 12.5V16.6864M35.4545 74.5975C43.7367 75.5286 52.0966 75.5286 60.3787 74.5975C60.3201 75.4031 60.1937 76.2029 60.0006 76.9884L59.659 78.3774C58.589 82.729 55.1895 86.1158 50.8495 87.154C48.9212 87.6153 46.9121 87.6153 44.9838 87.154C40.6437 86.1158 37.2443 82.729 36.1742 78.3774L35.8327 76.9884C35.6396 76.203 35.5132 75.4031 35.4545 74.5975ZM23.0324 35.9691C25.3421 27.4447 31.875 20.6385 40.2432 17.9259C45.3863 16.2588 50.9789 16.256 56.1127 17.9516C64.3325 20.6662 70.6249 27.3785 72.8304 35.7848L75.2604 45.0467L77.2075 53.8646C77.8072 56.5806 78.6231 59.3741 79.0533 62.1224C79.1279 62.5989 79.1666 63.0874 79.1666 63.5849C79.1666 68.0276 76.0518 71.8554 71.7183 72.7382L70.1867 73.0502C55.4895 76.0443 40.3437 76.0443 25.6466 73.0502L24.1149 72.7382C19.7814 71.8554 16.6666 68.0276 16.6666 63.5849C16.6666 63.0874 16.7053 62.5989 16.7799 62.1224C17.2101 59.3741 18.026 56.5806 18.6258 53.8646L20.5729 45.0467L23.0324 35.9691Z" stroke="#643FDB" stroke-opacity="0.8" stroke-width="6.25" stroke-linecap="round"/>
<path d="M75 12.5L12.5 75" stroke="#643FDB" stroke-opacity="0.8" stroke-width="6.25" stroke-linecap="round"/>
</svg>
