<svg width="24" height="24" viewBox="0 0 24 24" fill="none" xmlns="http://www.w3.org/2000/svg">
<path d="M11.5 3V4.00474M8.5091 17.9034C10.4968 18.1269 12.5032 18.1269 14.4909 17.9034C14.4768 18.0967 14.4465 18.2887 14.4001 18.4772L14.3182 18.8106C14.0614 19.855 13.2455 20.6678 12.2039 20.917C11.7411 21.0277 11.2589 21.0277 10.7961 20.917C9.75451 20.6678 8.93863 19.855 8.68182 18.8106L8.59985 18.4772C8.5535 18.2887 8.52317 18.0967 8.5091 17.9034ZM5.5278 8.63259C6.08212 6.58674 7.65001 4.95325 9.65838 4.30223C10.8927 3.90211 12.2349 3.90145 13.4671 4.30838C15.4398 4.9599 16.95 6.57084 17.4793 8.58835L18.0625 10.8112L18.5298 12.9275C18.6737 13.5793 18.8696 14.2498 18.9728 14.9094C18.9907 15.0237 19 15.141 19 15.2604C19 16.3266 18.2525 17.2453 17.2124 17.4572L16.8448 17.532C13.3175 18.2506 9.68251 18.2506 6.15518 17.532L5.78759 17.4572C4.74755 17.2453 4 16.3266 4 15.2604C4 15.141 4.00929 15.0237 4.02719 14.9094C4.13043 14.2498 4.32626 13.5793 4.4702 12.9275L4.9375 10.8112L5.5278 8.63259Z" stroke="white" stroke-width="1.5" stroke-linecap="round"/>
</svg>
