<svg width="24" height="24" viewBox="0 0 24 24" fill="none" xmlns="http://www.w3.org/2000/svg">
<path d="M20.3333 17.4167H20.4167V17.3333V5.66667V5.58333H20.3333H3.66667H3.58333V5.66667V17.3333V17.4167H3.66667H20.3333ZM3.66821 4.08333H20.3319C20.7474 4.09828 21.1419 4.27004 21.4359 4.56408C21.73 4.85812 21.9017 5.2526 21.9167 5.66814V17.3318C21.8842 18.1953 21.1953 18.8842 20.3318 18.9167H3.66823C2.80472 18.8842 2.11579 18.1953 2.08333 17.3318V5.66821C2.11579 4.80471 2.80471 4.11579 3.66821 4.08333ZM13.5833 14.625V15.5833H5.41667V14.625C5.41667 14.3099 5.57452 14.0274 5.84629 13.7772C6.1186 13.5265 6.49958 13.3139 6.9289 13.1419C7.78767 12.798 8.81881 12.625 9.5 12.625C10.1812 12.625 11.2123 12.798 12.0711 13.1419C12.5004 13.3139 12.8814 13.5265 13.1537 13.7772C13.4255 14.0274 13.5833 14.3099 13.5833 14.625ZM8.08579 8.00245C8.46086 7.62738 8.96957 7.41667 9.5 7.41667C9.76264 7.41667 10.0227 7.4684 10.2654 7.56891C10.508 7.66942 10.7285 7.81674 10.9142 8.00245C11.0999 8.18817 11.2473 8.40865 11.3478 8.6513C11.4483 8.89395 11.5 9.15402 11.5 9.41667C11.5 9.67931 11.4483 9.93938 11.3478 10.182C11.2473 10.4247 11.0999 10.6452 10.9142 10.8309C10.7285 11.0166 10.508 11.1639 10.2654 11.2644C10.0227 11.3649 9.76264 11.4167 9.5 11.4167C8.96957 11.4167 8.46086 11.206 8.08579 10.8309C7.90007 10.6452 7.75275 10.4247 7.65224 10.182C7.55173 9.93938 7.5 9.67931 7.5 9.41667C7.5 8.88623 7.71071 8.37753 8.08579 8.00245ZM18.5833 8.08333H13.75V7.41667H18.5833V8.08333ZM18.5833 9.75H13.75V9.08333H18.5833V9.75ZM16.9167 11.4167H13.75V10.75H16.9167V11.4167Z" fill="#643FDB" stroke="#F5FAFF" stroke-width="0.166667"/>
</svg>
